<svg xmlns="http://www.w3.org/2000/svg" width="164.695" height="50.609" viewBox="0 0 164.695 50.609">
  <g id="Gruppe_88366" data-name="Gruppe 88366" transform="translate(-4.579 -1)">
    <path id="Pfad_13379" data-name="Pfad 13379" d="M84.661,20.745c0-2.187-.942-3.771-4.75-3.771-3.658,0-5.807,1.584-5.807,3.959a3.834,3.834,0,0,1-.791-2.262c0-2.224,2.639-3.733,6.6-3.733,4.675,0,6.824,2.263,6.824,5.92V34.205a7.189,7.189,0,0,0-2.3-.377c-1.169,0-3.054.641-4.638.641-4.713,0-7.126-2.225-7.126-5.353C72.671,22.065,83.379,24.591,84.661,20.745ZM80.1,32.546a10.166,10.166,0,0,0,4.562-.98V23.2c-.754,2.639-9.841,1.018-9.841,5.958C74.82,31.114,76.366,32.546,80.1,32.546Z" fill="#676767"/>
    <path id="Pfad_13380" data-name="Pfad 13380" d="M94.277,28.286c0,1.81.452,4.26,5.052,4.26a11.61,11.61,0,0,0,4.978-.942V15.127s2.073,0,2.073,1.659V34.205a4.775,4.775,0,0,0-2.036-.377c-1.4,0-3.356.641-5.165.641-3.092,0-6.976-1.169-6.976-5.429V15.127s2.074.038,2.074,1.659Z" fill="#676767"/>
    <path id="Pfad_13381" data-name="Pfad 13381" d="M112.037,10.452s2.073.038,2.073,1.659v3.733h7.881s-.038,2.035-1.395,2.035H114.11v9.992c0,2.828,1.546,4.562,4.563,4.562,2.451,0,4.562-1.546,4.562-3.846a4.612,4.612,0,0,1,.679,2.263c0,2.45-2.564,3.619-5.279,3.619-3.619,0-6.6-1.96-6.6-5.655Z" fill="#676767"/>
    <path id="Pfad_13382" data-name="Pfad 13382" d="M127.119,15.127c.226,0,2.073.076,2.073,1.659V34.281s-2.073,0-2.073-1.66Z" fill="#676767"/>
    <path id="Pfad_13383" data-name="Pfad 13383" d="M149.817,28.625c0,3.7-2.451,5.844-7.654,5.844-5.241,0-7.691-2.148-7.691-5.844V20.783c0-3.658,2.45-5.845,7.691-5.845,5.2,0,7.654,2.187,7.654,5.845Zm-2.074-7.277c0-2.79-.942-4.449-5.58-4.449-4.676,0-5.618,1.659-5.618,4.449v6.711c0,2.828.942,4.487,5.618,4.487,4.638,0,5.58-1.659,5.58-4.487Z" fill="#676767"/>
    <path id="Pfad_13384" data-name="Pfad 13384" d="M167.2,20.933c0-2.488-1.319-3.959-5.014-3.959a12.314,12.314,0,0,0-5.015.9v16.4s-2.073,0-2.073-1.66V15.24a3.832,3.832,0,0,0,1.7.528c1.886,0,3.582-.83,5.92-.83,3.205,0,6.56,1.169,6.56,5.43V34.281s-2.074,0-2.074-1.66Z" fill="#676767"/>
    <path id="Pfad_13385" data-name="Pfad 13385" d="M133.354,2.828l-4.387-1.755a1.666,1.666,0,0,0-.974,0l-4.387,1.755a1.38,1.38,0,0,0-.877,1.364c.39,3.9,3.022,9.164,5.751,9.164s5.362-5.264,5.751-9.164A1.649,1.649,0,0,0,133.354,2.828Zm-.585,2.047c-.292,2.924-2.144,7.116-4.386,7.116S124.288,7.8,124,4.875a1.054,1.054,0,0,1,.682-1.072l3.315-1.268c.1,0,.2-.1.39-.1a.59.59,0,0,1,.39.1L132.087,3.8A1.321,1.321,0,0,1,132.769,4.875Z" fill="#99c33a"/>
    <path id="Pfad_13386" data-name="Pfad 13386" d="M132.769,4.875c-.292,2.924-2.144,7.116-4.386,7.116S124.288,7.8,124,4.875a1.054,1.054,0,0,1,.682-1.072l3.315-1.268c.1,0,.2-.1.39-.1a.59.59,0,0,1,.39.1L132.087,3.8A1.321,1.321,0,0,1,132.769,4.875Z" fill="#fff"/>
    <path id="Pfad_13387" data-name="Pfad 13387" d="M23.054,21.763c0,4.449-3.168,7.088-9.012,7.088a13.28,13.28,0,0,1-4.675-.942,5.342,5.342,0,0,0-.151,1.056c0,1.4,1.961,1.7,4.185,1.7h1.245c4.3,0,8.973-.3,8.973,5.694,0,4.109-3.016,6.786-9.615,6.786-5.806,0-8.747-1.847-8.747-4.223a5.743,5.743,0,0,1,1.508-3.544c.6,3.243,4.374,3.356,6.636,3.356,2.866,0,4.072-.6,4.072-2.036,0-1.32-1.206-1.47-2.941-1.47H12.685c-4.487,0-8.106-.642-8.106-4.337,0-1.545.867-2.752,2.224-4.373a7.606,7.606,0,0,1-1.847-4.751V20.292c0-4.826,4.109-6.6,8.181-6.6,2.074,0,4.336.83,6.221.83a10.929,10.929,0,0,0,3.7-.867Zm-6.221-3.28a8.3,8.3,0,0,0-2.564-.415c-1.961,0-2.979.678-2.979,2.79v.34c0,2.073.452,3.242,2.752,3.242,2.187,0,2.791-1.169,2.791-3.242Z" fill="#99c33a"/>
    <path id="Pfad_13388" data-name="Pfad 13388" d="M45.866,27.381c0,4.449-3.13,7.088-9.765,7.088-6.712,0-9.841-2.639-9.841-7.088v-6.6c0-4.412,3.129-7.089,9.841-7.089,6.635,0,9.765,2.677,9.765,7.089Zm-6.334-6.033c0-2.074-.6-3.2-3.431-3.2-2.9,0-3.507,1.131-3.507,3.2v5.467c0,2.074.6,3.243,3.507,3.243,2.827,0,3.431-1.169,3.431-3.243Z" fill="#99c33a"/>
    <g id="Gruppe_88365" data-name="Gruppe 88365" style="isolation: isolate">
      <path id="Pfad_13389" data-name="Pfad 13389" d="M51.475,16.409V25.42c0,5.128,3.205,6.938,7.767,6.938,2.3,0,9.124-.3,9.011-4.676,2.79,5.883-4.487,6.787-9.011,6.787-5.317,0-9.954-2.186-9.954-8.483V15.881c0-6.259,4.826-8.483,10.142-8.483,3.922,0,11.915.6,8.823,6.485,0-3.62-5.806-4.374-8.823-4.374C54.868,9.509,51.475,11.319,51.475,16.409Z" fill="#676767"/>
    </g>
    <path id="Pfad_13390" data-name="Pfad 13390" d="M54.507,46.889H53.215l-2.108-6.106h-.082l-.054,8.568H49.829l.285-9.452H51.8l2.012,6.106h.068l2-6.106h1.686l.313,9.452H56.737l-.081-8.568h-.068Z" fill="#99c33a"/>
    <path id="Pfad_13391" data-name="Pfad 13391" d="M61.96,40.266H60.573V39.11H61.96Zm-.136,9.085H60.695V41.436h1.129Z" fill="#99c33a"/>
    <path id="Pfad_13392" data-name="Pfad 13392" d="M67.373,49.528q-3.155,0-3.155-4.135t3.128-4.134a2.508,2.508,0,0,1,2.08.863,4.616,4.616,0,0,1,.694,2.864v.842H65.415A3.37,3.37,0,0,0,66,48.208a1.462,1.462,0,0,0,1.007.327,6.8,6.8,0,0,0,2.244-.381l.367-.136.285.925A5.463,5.463,0,0,1,67.373,49.528Zm1.278-6.882q-.271-.408-1.333-.408a1.75,1.75,0,0,0-1.482.557,3.79,3.79,0,0,0-.421,2.136l3.549-.068A5,5,0,0,0,68.651,42.646Z" fill="#99c33a"/>
    <path id="Pfad_13393" data-name="Pfad 13393" d="M73.642,41.9H75.22v.911H73.642v4.107a4.459,4.459,0,0,0,.116,1.374c.077.155.315.231.714.231l.735-.027v.912a3.453,3.453,0,0,1-.762.067,1.844,1.844,0,0,1-1.455-.537,3.3,3.3,0,0,1-.476-2.1V42.783h-.9v-.708l.938-.191.3-1.849h.788Z" fill="#99c33a"/>
    <path id="Pfad_13394" data-name="Pfad 13394" d="M80.062,49.528q-3.156,0-3.156-4.135t3.128-4.134a2.512,2.512,0,0,1,2.081.863,4.623,4.623,0,0,1,.694,2.864v.842H78.1a3.369,3.369,0,0,0,.585,2.38,1.459,1.459,0,0,0,1.006.327,6.791,6.791,0,0,0,2.244-.381l.367-.136.286.925A5.469,5.469,0,0,1,80.062,49.528Zm1.278-6.882q-.273-.408-1.333-.408a1.753,1.753,0,0,0-1.483.557,3.79,3.79,0,0,0-.421,2.136l3.549-.068A5.023,5.023,0,0,0,81.34,42.646Z" fill="#99c33a"/>
    <path id="Pfad_13395" data-name="Pfad 13395" d="M86.195,49.351H85.066V41.436h.762l.122.775h.068a5.856,5.856,0,0,1,2.829-.952,1.5,1.5,0,0,1,1.482.829,4.665,4.665,0,0,1,.34,2v5.264H89.527V44.482a4.763,4.763,0,0,0-.2-1.85.826.826,0,0,0-.742-.3,5.264,5.264,0,0,0-2.393.721Z" fill="#99c33a"/>
    <path id="Pfad_13396" data-name="Pfad 13396" d="M95.878,45.4a5.787,5.787,0,0,1,.673-3.087,3.01,3.01,0,0,1,4.576,0,5.708,5.708,0,0,1,.681,3.08,5.712,5.712,0,0,1-.681,3.081,3.017,3.017,0,0,1-4.576.007A5.752,5.752,0,0,1,95.878,45.4Zm4.06-2.931a2.711,2.711,0,0,0-2.19,0,1.49,1.49,0,0,0-.544.9,8.231,8.231,0,0,0-.183,2.02,8.639,8.639,0,0,0,.176,2.026,1.451,1.451,0,0,0,.544.912,2.1,2.1,0,0,0,1.1.231,2.066,2.066,0,0,0,1.1-.231,1.477,1.477,0,0,0,.537-.912,8.638,8.638,0,0,0,.176-2.026,8.563,8.563,0,0,0-.176-2.02A1.472,1.472,0,0,0,99.938,42.469Z" fill="#99c33a"/>
    <path id="Pfad_13397" data-name="Pfad 13397" d="M105.044,49.351h-1.129V39.11h1.129v2.815a6.587,6.587,0,0,1,2.393-.666,1.79,1.79,0,0,1,1.612.687,3.948,3.948,0,0,1,.455,2.141v5.264h-1.128V44.482a3.975,3.975,0,0,0-.272-1.876.825.825,0,0,0-.721-.286,5.189,5.189,0,0,0-2,.422l-.34.149Z" fill="#99c33a"/>
    <path id="Pfad_13398" data-name="Pfad 13398" d="M113.2,49.351h-1.128V41.436h.761l.123.775h.067a5.862,5.862,0,0,1,2.829-.952,1.505,1.505,0,0,1,1.483.829,4.68,4.68,0,0,1,.34,2v5.264h-1.143V44.482a4.742,4.742,0,0,0-.2-1.85.822.822,0,0,0-.74-.3,5.271,5.271,0,0,0-2.395.721Z" fill="#99c33a"/>
    <path id="Pfad_13399" data-name="Pfad 13399" d="M122.982,49.528q-3.155,0-3.155-4.135t3.128-4.134a2.512,2.512,0,0,1,2.081.863,4.623,4.623,0,0,1,.693,2.864v.842h-4.706a3.374,3.374,0,0,0,.585,2.38,1.461,1.461,0,0,0,1.007.327,6.791,6.791,0,0,0,2.244-.381l.368-.136.285.925A5.47,5.47,0,0,1,122.982,49.528Zm1.279-6.882q-.273-.408-1.333-.408a1.753,1.753,0,0,0-1.483.557,3.789,3.789,0,0,0-.422,2.136l3.55-.068A5.023,5.023,0,0,0,124.261,42.646Z" fill="#99c33a"/>
    <path id="Pfad_13400" data-name="Pfad 13400" d="M131.1,39.885q1.8-.162,2.72-.163a3.907,3.907,0,0,1,1.53.259,2.535,2.535,0,0,1,.965.686,3.471,3.471,0,0,1,.592,1.068,8.66,8.66,0,0,1,.367,2.774q0,5.019-3.495,5.019l-2.679-.177Zm2.53,8.636a2.394,2.394,0,0,0,1.618-.38Q136,47.392,136,44.5t-.721-3.515a2.171,2.171,0,0,0-1.319-.272l-1.728.1.014,7.575A9.433,9.433,0,0,0,133.631,48.521Z" fill="#99c33a"/>
    <path id="Pfad_13401" data-name="Pfad 13401" d="M142.362,49.528q-3.154,0-3.155-4.135t3.128-4.134a2.512,2.512,0,0,1,2.081.863,4.623,4.623,0,0,1,.693,2.864v.842H140.4a3.374,3.374,0,0,0,.585,2.38,1.46,1.46,0,0,0,1.007.327,6.791,6.791,0,0,0,2.244-.381l.367-.136.286.925A5.47,5.47,0,0,1,142.362,49.528Zm1.279-6.882q-.273-.408-1.333-.408a1.752,1.752,0,0,0-1.483.557,3.789,3.789,0,0,0-.422,2.136l3.55-.068A5.023,5.023,0,0,0,143.641,42.646Z" fill="#99c33a"/>
    <path id="Pfad_13402" data-name="Pfad 13402" d="M148.278,51.609h-1.129V41.436h.762l.15.8h.067c.018-.009.118-.077.3-.2s.355-.241.523-.341a3.517,3.517,0,0,1,.687-.292,2.745,2.745,0,0,1,.857-.143,1.982,1.982,0,0,1,1.768.979,5.694,5.694,0,0,1,.626,3.006q0,4.284-2.87,4.284a11.057,11.057,0,0,1-1.741-.191Zm0-3.36a8.1,8.1,0,0,0,1.836.286,1.51,1.51,0,0,0,.939-.217q.639-.531.638-3.292a4.523,4.523,0,0,0-.394-2.516,1.006,1.006,0,0,0-.735-.231,3.468,3.468,0,0,0-1.067.183,6.919,6.919,0,0,0-1.217.551Z" fill="#99c33a"/>
    <path id="Pfad_13403" data-name="Pfad 13403" d="M154.792,45.4a5.787,5.787,0,0,1,.673-3.087,3.01,3.01,0,0,1,4.576,0,5.708,5.708,0,0,1,.681,3.08,5.712,5.712,0,0,1-.681,3.081,3.017,3.017,0,0,1-4.576.007A5.752,5.752,0,0,1,154.792,45.4Zm4.06-2.931a2.711,2.711,0,0,0-2.19,0,1.49,1.49,0,0,0-.544.9,8.231,8.231,0,0,0-.183,2.02,8.639,8.639,0,0,0,.176,2.026,1.455,1.455,0,0,0,.544.912,2.1,2.1,0,0,0,1.1.231,2.066,2.066,0,0,0,1.1-.231,1.473,1.473,0,0,0,.537-.912,8.639,8.639,0,0,0,.176-2.026,8.563,8.563,0,0,0-.176-2.02A1.468,1.468,0,0,0,158.852,42.469Z" fill="#99c33a"/>
    <path id="Pfad_13404" data-name="Pfad 13404" d="M164.312,41.9h1.577v.911h-1.577v4.107a4.473,4.473,0,0,0,.115,1.374c.077.155.315.231.714.231l.734-.027v.912a3.44,3.44,0,0,1-.762.067,1.847,1.847,0,0,1-1.455-.537,3.31,3.31,0,0,1-.475-2.1V42.783h-.9v-.708l.939-.191.3-1.849h.79Z" fill="#99c33a"/>
    <path id="Pfad_13405" data-name="Pfad 13405" d="M167.711,49.351v-1.21h1.469v1.21Zm1.17-2.584h-.871l-.19-6.868h1.265Z" fill="#99c33a"/>
    <path id="Pfad_13406" data-name="Pfad 13406" d="M124.971,4.68a.1.1,0,0,0-.1.1,11.541,11.541,0,0,0,1.365,4.387c.682,1.267,1.462,1.95,2.145,1.95h0v-7.8h0Z" fill="#99c33a"/>
  </g>
</svg>
